# xmcd
#
# Track frame offsets: 
#        150
#        10925
#        21302
#        32370
#        41897
#        52370
#        62792
#        72922
#        82062
#        93620
#        103629
#        116460
#
# Disc length: 1669 seconds
#
# Revision: 0
# Processed by: cddbd v1.5.2PL0 Copyright (c) Steve Scherf et al.
# Submitted via: ExactAudioCopy v0.95b3
#
DISCID=a606830c
DTITLE=Judy Canova - Judy Canova
DYEAR=1945
DGENRE=Country
TTITLE0=Just Because
TTITLE1=Wabash Blues
TTITLE2=Ain't Gonna Grieve My Lord Anymore
TTITLE3=Go To Sleepy Little Baby
TTITLE4=The Butcher Boy
TTITLE5=Blow The Whistle
TTITLE6=Wabash Cannon Ball
TTITLE7=It's About Time
TTITLE8=I Don't Lnow Why (I Just Do)
TTITLE9=Tons Of Love
TTITLE10=Follow Me
TTITLE11=I Was Wrong
EXTD=
EXTT0=
EXTT1=
EXTT2=
EXTT3=
EXTT4=
EXTT5=
EXTT6=
EXTT7=
EXTT8=
EXTT9=
EXTT10=
EXTT11=
PLAYORDER=
